<svg width="18" height="18" viewBox="0 0 18 18" fill="none" xmlns="http://www.w3.org/2000/svg">
<path fill-rule="evenodd" clip-rule="evenodd" d="M17.5333 8.5215C17.5333 9.09859 17.4746 9.67489 17.3592 10.2366C17.2467 10.785 17.08 11.3234 16.8617 11.8381C16.6483 12.3437 16.3837 12.8309 16.0745 13.2853C15.77 13.7368 15.4191 14.1603 15.0337 14.5465C14.6474 14.9309 14.2224 15.2808 13.7711 15.5867C13.3152 15.8937 12.8273 16.1579 12.3215 16.3723C11.806 16.5894 11.2664 16.7559 10.7184 16.8682C10.1559 16.9839 9.57755 17.043 8.99962 17.043C8.42126 17.043 7.8429 16.9839 7.28121 16.8682C6.73244 16.7559 6.19283 16.5894 5.67779 16.3723C5.17195 16.1579 4.68357 15.8937 4.22772 15.5867C3.77645 15.2808 3.35143 14.9309 2.96599 14.5465C2.58015 14.1603 2.22928 13.7368 1.92427 13.2853C1.61675 12.8309 1.35172 12.3437 1.13755 11.8381C0.919183 11.3234 0.752114 10.785 0.639188 10.2366C0.525025 9.67489 0.466675 9.09859 0.466675 8.5215C0.466675 7.94398 0.524992 7.36645 0.639221 6.80594C0.752147 6.25753 0.919216 5.71829 1.13759 5.20443C1.35175 4.69848 1.61678 4.21084 1.9243 3.75645C2.22931 3.3046 2.58018 2.88182 2.96602 2.49527C3.35146 2.11079 3.77648 1.76173 4.22775 1.45632C4.6836 1.14798 5.17198 0.883798 5.67783 0.669077C6.19286 0.451421 6.73244 0.284594 7.28124 0.173098C7.84294 0.0582662 8.4213 0 8.99966 0C9.57758 0 10.1559 0.0582662 10.7185 0.173098C11.2664 0.284627 11.806 0.451454 12.3215 0.669077C12.8273 0.883765 13.3153 1.14798 13.7711 1.45632C14.2224 1.76173 14.6475 2.11079 15.0337 2.49527C15.4191 2.88182 15.77 3.3046 16.0746 3.75645C16.3837 4.21084 16.6483 4.69851 16.8617 5.20443C17.08 5.71829 17.2467 6.25753 17.3592 6.80594C17.4746 7.36645 17.5333 7.94398 17.5333 8.5215ZM5.89026 1.93938C3.85805 2.89765 2.34131 4.76754 1.86836 7.02108C2.06048 7.02274 5.0973 7.06103 8.59622 6.13271C7.33492 3.89498 5.98735 2.06882 5.89026 1.93938ZM9.2 7.25328C5.44774 8.37501 1.84711 8.2943 1.71795 8.28933C1.71585 8.36754 1.71211 8.44325 1.71211 8.52149C1.71211 10.3909 2.41839 12.0952 3.57929 13.3839C3.57678 13.3801 5.57108 9.84714 9.50377 8.57726C9.59876 8.54564 9.69546 8.51733 9.79128 8.48988C9.60838 8.07631 9.40875 7.66188 9.2 7.25328ZM13.8124 3.05992C12.5293 1.93022 10.8447 1.24496 8.9996 1.24496C8.40748 1.24496 7.83286 1.31654 7.28242 1.44884C7.39157 1.59533 8.76042 3.40862 10.0067 5.69374C12.7565 4.66436 13.7944 3.08653 13.8124 3.05992ZM10.288 9.69569C10.2718 9.70107 10.2556 9.7057 10.2397 9.7115C5.93997 11.2083 4.53583 14.2248 4.52064 14.2577C5.75781 15.2184 7.30956 15.798 8.99965 15.798C10.0088 15.798 10.9701 15.5929 11.8448 15.2213C11.7368 14.5856 11.3135 12.357 10.288 9.69569ZM13.0719 14.5564C14.7082 13.4538 15.8703 11.7029 16.1945 9.67485C16.0445 9.62659 14.0057 8.98206 11.6535 9.35864C12.6093 11.9817 12.9977 14.1179 13.0719 14.5564ZM10.5676 6.77808C10.7368 7.12511 10.9006 7.47831 11.0518 7.83327C11.1056 7.96061 11.1581 8.08545 11.2093 8.21025C13.7128 7.89567 16.1792 8.42494 16.2846 8.44655C16.2679 6.72148 15.65 5.13825 14.6275 3.89875C14.6137 3.91827 13.4449 5.60468 10.5676 6.77808Z" fill="white"/>
</svg>
