<svg width="18" height="18" viewBox="0 0 18 18" fill="none" xmlns="http://www.w3.org/2000/svg">
<path fill-rule="evenodd" clip-rule="evenodd" d="M9.00081 0C6.68327 0 6.39243 0.0101334 5.48219 0.0515561C4.57374 0.0931565 3.95364 0.23698 3.41106 0.448005C2.84981 0.665962 2.37372 0.957521 1.8994 1.43201C1.42473 1.90633 1.13317 2.38242 0.914502 2.9435C0.702944 3.48626 0.558942 4.10653 0.518053 5.01463C0.477342 5.92486 0.466675 6.21589 0.466675 8.53342C0.466675 10.851 0.476986 11.1409 0.518231 12.0511C0.560009 12.9596 0.703833 13.5797 0.914679 14.1223C1.13282 14.6835 1.42437 15.1596 1.89887 15.6339C2.37301 16.1086 2.8491 16.4009 3.40999 16.6188C3.95293 16.8299 4.57321 16.9737 5.48148 17.0153C6.39171 17.0567 6.68238 17.0668 8.99974 17.0668C11.3175 17.0668 11.6074 17.0567 12.5176 17.0153C13.4261 16.9737 14.0469 16.8299 14.5898 16.6188C15.1509 16.4009 15.6263 16.1086 16.1004 15.6339C16.5751 15.1596 16.8667 14.6835 17.0853 14.1225C17.2951 13.5797 17.4391 12.9594 17.4818 12.0513C17.5227 11.1411 17.5333 10.851 17.5333 8.53342C17.5333 6.21589 17.5227 5.92504 17.4818 5.01481C17.4391 4.10635 17.2951 3.48626 17.0853 2.94368C16.8667 2.38242 16.5751 1.90633 16.1004 1.43201C15.6258 0.957343 15.1511 0.665785 14.5893 0.448005C14.0453 0.23698 13.4249 0.0931565 12.5164 0.0515561C11.6062 0.0101334 11.3164 0 8.99814 0H9.00081ZM8.23525 1.53777C8.46245 1.53741 8.71597 1.53777 9.00077 1.53777C11.2792 1.53777 11.5492 1.54595 12.449 1.58684C13.281 1.62488 13.7326 1.76391 14.0334 1.88071C14.4316 2.03537 14.7155 2.22027 15.014 2.51894C15.3127 2.81761 15.4976 3.10205 15.6526 3.50028C15.7694 3.80073 15.9086 4.25229 15.9464 5.0843C15.9873 5.98386 15.9962 6.25409 15.9962 8.53144C15.9962 10.8088 15.9873 11.079 15.9464 11.9786C15.9084 12.8106 15.7694 13.2622 15.6526 13.5626C15.4979 13.9608 15.3127 14.2444 15.014 14.5429C14.7153 14.8416 14.4318 15.0264 14.0334 15.1811C13.7329 15.2984 13.281 15.4371 12.449 15.4752C11.5494 15.5161 11.2792 15.5249 9.00077 15.5249C6.72217 15.5249 6.45212 15.5161 5.55256 15.4752C4.72055 15.4368 4.26899 15.2977 3.96801 15.1809C3.56978 15.0263 3.28533 14.8414 2.98666 14.5427C2.68799 14.244 2.5031 13.9603 2.34808 13.5619C2.23128 13.2614 2.09208 12.8099 2.05421 11.9779C2.01332 11.0783 2.00514 10.8081 2.00514 8.52931C2.00514 6.25053 2.01332 5.98173 2.05421 5.08216C2.09226 4.25015 2.23128 3.79859 2.34808 3.49779C2.50275 3.09956 2.68799 2.81512 2.98666 2.51645C3.28533 2.21778 3.56978 2.03289 3.96801 1.87786C4.26881 1.76053 4.72055 1.62186 5.55256 1.58364C6.33977 1.54808 6.64484 1.53741 8.23525 1.53564V1.53777ZM13.5558 2.95468C12.9905 2.95468 12.5318 3.41282 12.5318 3.97833C12.5318 4.54367 12.9905 5.00234 13.5558 5.00234C14.1212 5.00234 14.5799 4.54367 14.5799 3.97833C14.5799 3.41299 14.1212 2.95468 13.5558 2.95468ZM9.00082 4.15113C6.58071 4.15113 4.61855 6.11328 4.61855 8.5334C4.61855 10.9535 6.58071 12.9148 9.00082 12.9148C11.4209 12.9148 13.3824 10.9535 13.3824 8.5334C13.3824 6.11328 11.4209 4.15113 9.00082 4.15113ZM9.00079 5.68892C10.5717 5.68892 11.8453 6.96236 11.8453 8.5334C11.8453 10.1043 10.5717 11.3779 9.00079 11.3779C7.42975 11.3779 6.15632 10.1043 6.15632 8.5334C6.15632 6.96236 7.42975 5.68892 9.00079 5.68892Z" fill="white"/>
</svg>
