<svg width="18" height="13" viewBox="0 0 18 13" fill="none" xmlns="http://www.w3.org/2000/svg">
<path fill-rule="evenodd" clip-rule="evenodd" d="M15.6679 0.366219C16.4022 0.567729 16.9805 1.16148 17.1768 1.91548C17.5335 3.28203 17.5335 6.13333 17.5335 6.13333C17.5335 6.13333 17.5335 8.98454 17.1768 10.3512C16.9805 11.1052 16.4022 11.6989 15.6679 11.9005C14.3371 12.2667 9.00013 12.2667 9.00013 12.2667C9.00013 12.2667 3.66321 12.2667 2.3323 11.9005C1.59795 11.6989 1.01962 11.1052 0.823354 10.3512C0.466797 8.98454 0.466797 6.13333 0.466797 6.13333C0.466797 6.13333 0.466797 3.28203 0.823354 1.91548C1.01962 1.16148 1.59795 0.567729 2.3323 0.366219C3.66321 0 9.00013 0 9.00013 0C9.00013 0 14.3371 0 15.6679 0.366219ZM7.40015 3.73328V9.06661L11.6668 6.40004L7.40015 3.73328Z" fill="white"/>
</svg>
